# xmcd
#
# Track frame offsets:
#	150
#	15683
#	33154
#	51776
#	65999
#	83112
#	97780
#	117261
#	127886
#	147015
#	165796
#
# Disc length: 2522 seconds
#
# Revision: 1
# Processed by: cddbd v1.5.2PL0 Copyright (c) Steve Scherf et al.
# Submitted via: audiograbber 1.83.01
#
DISCID=8009d80b
DTITLE=Reckless Love - Spirit
DYEAR=2013
DGENRE=Rock
TTITLE0=Night on fire
TTITLE1=Bad Lovin'
TTITLE2=I love Heavy Metal
TTITLE3=Favorite Flavour
TTITLE4=Edge of our dreams
TTITLE5=Sex, drugs and reckless love
TTITLE6=Dying to live
TTITLE7=Metal ass
TTITLE8=Runaway love
TTITLE9=So happy I could die
TTITLE10=Not rain
EXTD=
EXTT0=
EXTT1=
EXTT2=
EXTT3=
EXTT4=
EXTT5=
EXTT6=
EXTT7=
EXTT8=
EXTT9=
EXTT10=
PLAYORDER=
